<svg xmlns="http://www.w3.org/2000/svg" width="43.92" height="35" viewBox="0 0 43.92 35"><rect class="svg__rect" x="0" y="0" width="0" height="35" fill="#31C4F3"/><rect class="svg__rect" x="0" y="0" width="43.92" height="35" fill="#BD9A0E"/><path class="svg__text" d="" fill="#FFFFFF"/><path class="svg__text" d="M13.11 20.93L13.11 20.93L14.40 19.40Q15.07 20.27 15.85 20.27L15.85 20.27Q15.85 20.27 15.86 20.27L15.86 20.27Q16.37 20.27 16.64 19.96Q16.91 19.65 16.91 19.05L16.91 19.05L16.91 15.44L14.01 15.44L14.01 13.60L19.27 13.60L19.27 18.91Q19.27 20.54 18.44 21.36Q17.62 22.17 16.03 22.17L16.03 22.17Q15.10 22.17 14.35 21.85Q13.59 21.53 13.11 20.93ZM23.77 21.24L23.77 21.24L24.55 19.49Q25.11 19.86 25.85 20.09Q26.60 20.32 27.32 20.32L27.32 20.32Q28.68 20.32 28.69 19.64L28.69 19.64Q28.69 19.28 28.30 19.11Q27.91 18.93 27.04 18.74L27.04 18.74Q26.09 18.53 25.46 18.30Q24.82 18.06 24.37 17.55Q23.91 17.03 23.91 16.16L23.91 16.16Q23.91 15.39 24.33 14.77Q24.75 14.15 25.59 13.79Q26.42 13.43 27.63 13.43L27.63 13.43Q28.46 13.43 29.26 13.62Q30.07 13.80 30.68 14.17L30.68 14.17L29.95 15.93Q28.75 15.28 27.62 15.28L27.62 15.28Q26.91 15.28 26.59 15.49Q26.26 15.70 26.26 16.04L26.26 16.04Q26.26 16.37 26.65 16.54Q27.03 16.71 27.88 16.89L27.88 16.89Q28.84 17.10 29.47 17.33Q30.10 17.56 30.56 18.07Q31.03 18.58 31.03 19.46L31.03 19.46Q31.03 20.21 30.61 20.83Q30.19 21.44 29.35 21.80Q28.51 22.17 27.31 22.17L27.31 22.17Q26.29 22.17 25.33 21.92Q24.37 21.67 23.77 21.24Z" fill="#FFFFFF" x="39"/></svg>