<svg xmlns="http://www.w3.org/2000/svg" width="227" height="35" viewBox="0 0 227 35"><rect class="svg__rect" x="0" y="0" width="122.11" height="35" fill="#0D2908"/><rect class="svg__rect" x="120.11" y="0" width="106.88999999999999" height="35" fill="#BD9A0E"/><path class="svg__text" d="M17.33 22L14.22 22L14.22 13.47L17.14 13.47Q18.59 13.47 19.34 14.05Q20.10 14.63 20.10 15.78L20.10 15.78Q20.10 16.36 19.78 16.83Q19.47 17.30 18.86 17.56L18.86 17.56Q19.55 17.75 19.93 18.26Q20.31 18.78 20.31 19.51L20.31 19.51Q20.31 20.71 19.53 21.36Q18.76 22 17.33 22L17.33 22ZM15.70 18.15L15.70 20.82L17.35 20.82Q18.04 20.82 18.44 20.47Q18.83 20.13 18.83 19.51L18.83 19.51Q18.83 18.18 17.47 18.15L17.47 18.15L15.70 18.15ZM15.70 14.66L15.70 17.06L17.15 17.06Q17.84 17.06 18.23 16.75Q18.62 16.43 18.62 15.86L18.62 15.86Q18.62 15.23 18.26 14.95Q17.90 14.66 17.14 14.66L17.14 14.66L15.70 14.66ZM24.64 19.16L24.64 19.16L24.64 13.47L26.12 13.47L26.12 19.18Q26.12 20.03 26.55 20.48Q26.98 20.93 27.83 20.93L27.83 20.93Q29.54 20.93 29.54 19.13L29.54 19.13L29.54 13.47L31.02 13.47L31.02 19.17Q31.02 20.53 30.15 21.32Q29.28 22.12 27.83 22.12L27.83 22.12Q26.36 22.12 25.50 21.33Q24.64 20.55 24.64 19.16ZM37.15 22L35.67 22L35.67 13.47L37.15 13.47L37.15 22ZM47.32 22L41.96 22L41.96 13.47L43.44 13.47L43.44 20.82L47.32 20.82L47.32 22ZM53.90 22L51.44 22L51.44 13.47L53.96 13.47Q55.09 13.47 55.97 13.97Q56.84 14.48 57.32 15.40Q57.81 16.33 57.81 17.52L57.81 17.52L57.81 17.95Q57.81 19.16 57.32 20.08Q56.84 21.00 55.94 21.50Q55.05 22 53.90 22L53.90 22ZM52.92 14.66L52.92 20.82L53.89 20.82Q55.06 20.82 55.68 20.09Q56.31 19.36 56.32 17.99L56.32 17.99L56.32 17.52Q56.32 16.13 55.71 15.40Q55.11 14.66 53.96 14.66L53.96 14.66L52.92 14.66ZM69.73 22L68.25 22L68.25 13.47L73.67 13.47L73.67 14.66L69.73 14.66L69.73 17.20L73.16 17.20L73.16 18.38L69.73 18.38L69.73 22ZM79.31 22L77.83 22L77.83 13.47L80.83 13.47Q82.30 13.47 83.11 14.13Q83.91 14.79 83.91 16.05L83.91 16.05Q83.91 16.90 83.50 17.48Q83.08 18.06 82.34 18.37L82.34 18.37L84.26 21.92L84.26 22L82.67 22L80.96 18.71L79.31 18.71L79.31 22ZM79.31 14.66L79.31 17.52L80.83 17.52Q81.58 17.52 82.00 17.15Q82.43 16.77 82.43 16.11L82.43 16.11Q82.43 15.43 82.04 15.05Q81.65 14.68 80.87 14.66L80.87 14.66L79.31 14.66ZM88.03 18.00L88.03 18.00L88.03 17.52Q88.03 16.28 88.48 15.32Q88.92 14.37 89.72 13.86Q90.53 13.35 91.57 13.35Q92.62 13.35 93.42 13.85Q94.23 14.35 94.67 15.29Q95.11 16.23 95.11 17.48L95.11 17.48L95.11 17.96Q95.11 19.21 94.68 20.16Q94.24 21.10 93.44 21.61Q92.63 22.12 91.58 22.12L91.58 22.12Q90.55 22.12 89.74 21.61Q88.92 21.10 88.48 20.17Q88.04 19.23 88.03 18.00ZM89.52 17.46L89.52 17.96Q89.52 19.36 90.06 20.13Q90.61 20.90 91.58 20.90L91.58 20.90Q92.57 20.90 93.10 20.15Q93.63 19.40 93.63 17.96L93.63 17.96L93.63 17.51Q93.63 16.09 93.09 15.34Q92.56 14.58 91.57 14.58L91.57 14.58Q90.61 14.58 90.07 15.33Q89.53 16.09 89.52 17.46L89.52 17.46ZM101.05 22L99.58 22L99.58 13.47L101.50 13.47L103.96 20.01L106.41 13.47L108.33 13.47L108.33 22L106.85 22L106.85 19.19L107.00 15.43L104.48 22L103.42 22L100.91 15.43L101.05 19.19L101.05 22Z" fill="#FFFFFF"/><path class="svg__text" d="M133.71 21.24L133.71 21.24L134.49 19.49Q135.05 19.86 135.80 20.09Q136.54 20.32 137.26 20.32L137.26 20.32Q138.63 20.32 138.63 19.64L138.63 19.64Q138.63 19.28 138.24 19.11Q137.85 18.93 136.99 18.74L136.99 18.74Q136.04 18.53 135.40 18.30Q134.77 18.06 134.31 17.55Q133.86 17.03 133.86 16.16L133.86 16.16Q133.86 15.39 134.28 14.77Q134.70 14.15 135.53 13.79Q136.37 13.43 137.57 13.43L137.57 13.43Q138.40 13.43 139.21 13.62Q140.01 13.80 140.63 14.17L140.63 14.17L139.89 15.93Q138.69 15.28 137.56 15.28L137.56 15.28Q136.85 15.28 136.53 15.49Q136.21 15.70 136.21 16.04L136.21 16.04Q136.21 16.37 136.59 16.54Q136.98 16.71 137.83 16.89L137.83 16.89Q138.79 17.10 139.42 17.33Q140.05 17.56 140.51 18.07Q140.97 18.58 140.97 19.46L140.97 19.46Q140.97 20.21 140.55 20.83Q140.13 21.44 139.29 21.80Q138.45 22.17 137.25 22.17L137.25 22.17Q136.23 22.17 135.27 21.92Q134.31 21.67 133.71 21.24ZM145.12 17.80L145.12 17.80Q145.12 16.54 145.72 15.54Q146.32 14.55 147.37 13.99Q148.42 13.43 149.74 13.43L149.74 13.43Q150.89 13.43 151.81 13.84Q152.74 14.25 153.35 15.02L153.35 15.02L151.84 16.39Q151.03 15.40 149.86 15.40L149.86 15.40Q149.17 15.40 148.64 15.70Q148.11 16 147.81 16.54Q147.52 17.09 147.52 17.80L147.52 17.80Q147.52 18.51 147.81 19.05Q148.11 19.60 148.64 19.90Q149.17 20.20 149.86 20.20L149.86 20.20Q151.03 20.20 151.84 19.22L151.84 19.22L153.35 20.58Q152.74 21.35 151.82 21.76Q150.89 22.17 149.74 22.17L149.74 22.17Q148.42 22.17 147.37 21.61Q146.32 21.05 145.72 20.05Q145.12 19.06 145.12 17.80ZM160.27 22L157.89 22L157.89 13.60L161.73 13.60Q162.87 13.60 163.71 13.98Q164.55 14.35 165.01 15.06Q165.46 15.76 165.46 16.71L165.46 16.71Q165.46 17.62 165.04 18.30Q164.61 18.98 163.82 19.36L163.82 19.36L165.63 22L163.09 22L161.56 19.77L160.27 19.77L160.27 22ZM160.27 15.47L160.27 17.93L161.59 17.93Q162.32 17.93 162.69 17.61Q163.06 17.29 163.06 16.71L163.06 16.71Q163.06 16.12 162.69 15.79Q162.32 15.47 161.59 15.47L161.59 15.47L160.27 15.47ZM171.67 22L169.24 22L172.95 13.60L175.30 13.60L179.01 22L176.54 22L175.88 20.37L172.33 20.37L171.67 22ZM174.11 15.93L173.02 18.61L175.18 18.61L174.11 15.93ZM184.96 15.48L182.37 15.48L182.37 13.60L189.90 13.60L189.90 15.48L187.33 15.48L187.33 22L184.96 22L184.96 15.48ZM193.84 17.80L193.84 17.80Q193.84 16.54 194.44 15.54Q195.04 14.55 196.09 13.99Q197.14 13.43 198.46 13.43L198.46 13.43Q199.61 13.43 200.54 13.84Q201.46 14.25 202.07 15.02L202.07 15.02L200.56 16.39Q199.75 15.40 198.58 15.40L198.58 15.40Q197.90 15.40 197.36 15.70Q196.83 16 196.53 16.54Q196.24 17.09 196.24 17.80L196.24 17.80Q196.24 18.51 196.53 19.05Q196.83 19.60 197.36 19.90Q197.90 20.20 198.58 20.20L198.58 20.20Q199.75 20.20 200.56 19.22L200.56 19.22L202.07 20.58Q201.46 21.35 200.54 21.76Q199.61 22.17 198.46 22.17L198.46 22.17Q197.14 22.17 196.09 21.61Q195.04 21.05 194.44 20.05Q193.84 19.06 193.84 17.80ZM208.99 22L206.61 22L206.61 13.60L208.99 13.60L208.99 16.76L212.23 16.76L212.23 13.60L214.60 13.60L214.60 22L212.23 22L212.23 18.72L208.99 18.72L208.99 22Z" fill="#FFFFFF" x="133.11"/></svg>