<svg xmlns="http://www.w3.org/2000/svg" width="134.42" height="35" viewBox="0 0 134.42 35"><rect class="svg__rect" x="0" y="0" width="64.85" height="35" fill="#0D2908"/><rect class="svg__rect" x="62.849999999999994" y="0" width="71.57" height="35" fill="#BD9A0E"/><path class="svg__text" d="M15.60 22L13.63 13.47L15.10 13.47L16.43 19.88L18.06 13.47L19.30 13.47L20.91 19.89L22.22 13.47L23.69 13.47L21.72 22L20.31 22L18.68 15.77L17.02 22L15.60 22ZM29.33 22L27.85 22L27.85 13.47L29.33 13.47L29.33 22ZM35.82 14.66L33.18 14.66L33.18 13.47L39.95 13.47L39.95 14.66L37.29 14.66L37.29 22L35.82 22L35.82 14.66ZM45.19 22L43.71 22L43.71 13.47L45.19 13.47L45.19 17.02L49.00 17.02L49.00 13.47L50.48 13.47L50.48 22L49.00 22L49.00 18.21L45.19 18.21L45.19 22Z" fill="#FFFFFF"/><path class="svg__text" d="M79.42 22L77.04 22L77.04 13.60L79.42 13.60L79.42 16.76L82.66 16.76L82.66 13.60L85.03 13.60L85.03 22L82.66 22L82.66 18.72L79.42 18.72L79.42 22ZM91.99 15.48L89.40 15.48L89.40 13.60L96.92 13.60L96.92 15.48L94.36 15.48L94.36 22L91.99 22L91.99 15.48ZM103.49 22L101.30 22L101.30 13.60L103.25 13.60L106.21 18.45L109.09 13.60L111.04 13.60L111.06 22L108.88 22L108.86 17.55L106.70 21.17L105.64 21.17L103.49 17.67L103.49 22ZM122.61 22L116.23 22L116.23 13.60L118.60 13.60L118.60 20.11L122.61 20.11L122.61 22Z" fill="#FFFFFF" x="75.85"/></svg>